<?xml version="1.0" encoding="UTF-8"?>
<svg xmlns="http://www.w3.org/2000/svg" version="1.1" width="200" height="200" viewBox="0 0 200 200"><rect x="0" y="0" width="200" height="200" fill="#ffffff"/><g transform="scale(4.878)"><g transform="translate(0,0)"><path fill-rule="evenodd" d="M8 0L8 3L9 3L9 2L10 2L10 1L11 1L11 0L10 0L10 1L9 1L9 0ZM12 0L12 1L13 1L13 0ZM14 0L14 2L11 2L11 3L10 3L10 4L9 4L9 5L8 5L8 11L7 11L7 10L5 10L5 8L2 8L2 9L0 9L0 13L1 13L1 12L2 12L2 14L3 14L3 13L5 13L5 11L7 11L7 12L6 12L6 13L7 13L7 12L8 12L8 11L10 11L10 9L9 9L9 8L10 8L10 7L11 7L11 6L12 6L12 7L13 7L13 6L12 6L12 5L14 5L14 8L13 8L13 10L11 10L11 12L12 12L12 13L13 13L13 14L14 14L14 15L15 15L15 16L13 16L13 15L11 15L11 16L10 16L10 14L8 14L8 16L9 16L9 17L8 17L8 18L10 18L10 17L11 17L11 16L13 16L13 17L12 17L12 19L10 19L10 20L9 20L9 19L7 19L7 18L5 18L5 19L4 19L4 17L5 17L5 16L6 16L6 17L7 17L7 16L6 16L6 15L7 15L7 14L4 14L4 15L3 15L3 17L2 17L2 18L3 18L3 19L2 19L2 20L3 20L3 19L4 19L4 20L5 20L5 19L7 19L7 20L6 20L6 21L5 21L5 22L4 22L4 23L2 23L2 25L3 25L3 26L1 26L1 27L0 27L0 28L1 28L1 29L0 29L0 33L1 33L1 30L2 30L2 32L3 32L3 33L8 33L8 34L9 34L9 33L10 33L10 31L9 31L9 32L8 32L8 29L7 29L7 28L6 28L6 27L7 27L7 26L8 26L8 28L9 28L9 30L11 30L11 33L12 33L12 31L14 31L14 32L15 32L15 33L14 33L14 35L13 35L13 34L12 34L12 35L13 35L13 36L12 36L12 37L9 37L9 36L11 36L11 35L9 35L9 36L8 36L8 39L9 39L9 40L11 40L11 41L14 41L14 40L15 40L15 41L20 41L20 40L18 40L18 38L19 38L19 37L18 37L18 35L20 35L20 34L19 34L19 33L18 33L18 32L19 32L19 30L20 30L20 31L21 31L21 32L20 32L20 33L21 33L21 32L22 32L22 31L23 31L23 32L24 32L24 31L23 31L23 29L24 29L24 30L25 30L25 29L27 29L27 30L29 30L29 29L30 29L30 30L32 30L32 32L31 32L31 33L30 33L30 32L29 32L29 31L28 31L28 32L29 32L29 33L28 33L28 34L26 34L26 33L27 33L27 31L25 31L25 32L26 32L26 33L25 33L25 34L26 34L26 35L24 35L24 33L23 33L23 37L22 37L22 34L21 34L21 37L22 37L22 38L21 38L21 41L27 41L27 39L28 39L28 41L31 41L31 39L32 39L32 40L33 40L33 41L34 41L34 39L36 39L36 40L35 40L35 41L39 41L39 40L40 40L40 38L41 38L41 37L40 37L40 34L41 34L41 33L39 33L39 32L40 32L40 31L39 31L39 30L41 30L41 29L39 29L39 28L38 28L38 27L37 27L37 26L38 26L38 25L39 25L39 26L40 26L40 25L39 25L39 24L37 24L37 23L38 23L38 22L41 22L41 19L40 19L40 18L41 18L41 17L40 17L40 18L39 18L39 16L37 16L37 15L38 15L38 14L37 14L37 13L39 13L39 14L41 14L41 12L40 12L40 10L41 10L41 8L38 8L38 10L39 10L39 12L38 12L38 11L37 11L37 13L36 13L36 11L34 11L34 10L37 10L37 9L36 9L36 8L32 8L32 9L31 9L31 5L32 5L32 7L33 7L33 3L32 3L32 2L33 2L33 0L30 0L30 3L29 3L29 0L27 0L27 1L26 1L26 0L25 0L25 1L23 1L23 0L21 0L21 2L20 2L20 0L19 0L19 1L18 1L18 0L16 0L16 2L15 2L15 0ZM31 1L31 2L32 2L32 1ZM14 2L14 3L12 3L12 4L10 4L10 5L9 5L9 7L10 7L10 6L11 6L11 5L12 5L12 4L14 4L14 3L15 3L15 2ZM16 2L16 3L17 3L17 4L19 4L19 3L17 3L17 2ZM21 2L21 3L20 3L20 5L19 5L19 7L18 7L18 6L17 6L17 7L18 7L18 8L19 8L19 9L20 9L20 10L22 10L22 11L18 11L18 13L17 13L17 12L16 12L16 11L17 11L17 10L14 10L14 11L13 11L13 12L14 12L14 14L15 14L15 15L16 15L16 16L15 16L15 17L17 17L17 18L18 18L18 19L19 19L19 18L18 18L18 17L19 17L19 16L17 16L17 15L21 15L21 16L20 16L20 17L21 17L21 18L20 18L20 20L18 20L18 21L17 21L17 22L18 22L18 21L20 21L20 23L17 23L17 24L16 24L16 25L15 25L15 24L14 24L14 23L13 23L13 22L11 22L11 23L9 23L9 26L10 26L10 24L11 24L11 27L12 27L12 26L16 26L16 27L15 27L15 28L17 28L17 31L15 31L15 30L16 30L16 29L14 29L14 27L13 27L13 28L12 28L12 30L13 30L13 29L14 29L14 31L15 31L15 32L18 32L18 30L19 30L19 29L20 29L20 28L21 28L21 29L23 29L23 28L24 28L24 29L25 29L25 28L26 28L26 27L27 27L27 26L28 26L28 29L29 29L29 28L31 28L31 27L32 27L32 26L33 26L33 27L35 27L35 28L34 28L34 29L35 29L35 32L39 32L39 31L38 31L38 29L37 29L37 28L36 28L36 27L35 27L35 26L33 26L33 25L37 25L37 24L36 24L36 21L38 21L38 20L39 20L39 21L40 21L40 20L39 20L39 19L38 19L38 18L37 18L37 19L38 19L38 20L36 20L36 17L37 17L37 16L36 16L36 13L35 13L35 12L34 12L34 13L32 13L32 12L33 12L33 11L32 11L32 10L33 10L33 9L32 9L32 10L31 10L31 9L27 9L27 10L28 10L28 11L27 11L27 13L28 13L28 14L29 14L29 15L28 15L28 17L27 17L27 14L26 14L26 15L25 15L25 16L26 16L26 17L24 17L24 20L23 20L23 16L22 16L22 15L23 15L23 14L22 14L22 13L21 13L21 14L20 14L20 12L23 12L23 13L24 13L24 14L25 14L25 13L26 13L26 11L25 11L25 8L27 8L27 7L28 7L28 6L29 6L29 8L30 8L30 6L29 6L29 5L31 5L31 4L32 4L32 3L31 3L31 4L29 4L29 5L28 5L28 2L26 2L26 3L25 3L25 2ZM21 3L21 4L22 4L22 8L20 8L20 7L21 7L21 5L20 5L20 7L19 7L19 8L20 8L20 9L22 9L22 8L24 8L24 7L25 7L25 5L26 5L26 7L27 7L27 6L28 6L28 5L26 5L26 4L27 4L27 3L26 3L26 4L22 4L22 3ZM15 4L15 5L16 5L16 4ZM23 5L23 7L24 7L24 5ZM15 6L15 7L16 7L16 6ZM6 8L6 9L7 9L7 8ZM15 8L15 9L16 9L16 8ZM3 9L3 10L2 10L2 12L3 12L3 11L5 11L5 10L4 10L4 9ZM30 10L30 12L29 12L29 11L28 11L28 13L29 13L29 14L30 14L30 16L29 16L29 17L30 17L30 20L28 20L28 22L27 22L27 23L24 23L24 22L23 22L23 20L22 20L22 18L21 18L21 20L20 20L20 21L22 21L22 22L23 22L23 24L21 24L21 23L20 23L20 24L21 24L21 25L18 25L18 24L17 24L17 25L18 25L18 27L19 27L19 28L20 28L20 27L22 27L22 28L23 28L23 26L25 26L25 27L24 27L24 28L25 28L25 27L26 27L26 26L27 26L27 25L28 25L28 23L30 23L30 22L29 22L29 21L31 21L31 22L32 22L32 23L31 23L31 24L29 24L29 26L30 26L30 27L31 27L31 26L32 26L32 25L33 25L33 23L34 23L34 24L35 24L35 23L34 23L34 22L35 22L35 21L36 21L36 20L35 20L35 21L34 21L34 18L35 18L35 17L36 17L36 16L35 16L35 13L34 13L34 14L33 14L33 17L30 17L30 16L31 16L31 14L32 14L32 13L30 13L30 12L31 12L31 10ZM14 11L14 12L15 12L15 11ZM23 11L23 12L24 12L24 13L25 13L25 12L24 12L24 11ZM15 13L15 14L17 14L17 13ZM0 14L0 16L1 16L1 14ZM21 14L21 15L22 15L22 14ZM21 16L21 17L22 17L22 16ZM34 16L34 17L35 17L35 16ZM13 17L13 19L12 19L12 21L13 21L13 20L14 20L14 22L15 22L15 19L14 19L14 17ZM26 17L26 18L25 18L25 19L29 19L29 18L27 18L27 17ZM31 18L31 19L32 19L32 18ZM16 19L16 20L17 20L17 19ZM8 20L8 21L6 21L6 22L10 22L10 21L9 21L9 20ZM26 20L26 21L25 21L25 22L26 22L26 21L27 21L27 20ZM32 20L32 21L33 21L33 22L34 22L34 21L33 21L33 20ZM0 21L0 25L1 25L1 21ZM2 21L2 22L3 22L3 21ZM4 23L4 24L7 24L7 25L5 25L5 26L7 26L7 25L8 25L8 23ZM40 23L40 24L41 24L41 23ZM12 24L12 25L13 25L13 24ZM23 24L23 25L21 25L21 26L23 26L23 25L24 25L24 24ZM26 24L26 25L25 25L25 26L26 26L26 25L27 25L27 24ZM1 27L1 28L2 28L2 29L5 29L5 27L4 27L4 28L2 28L2 27ZM9 27L9 28L10 28L10 27ZM40 27L40 28L41 28L41 27ZM35 28L35 29L36 29L36 31L37 31L37 29L36 29L36 28ZM6 29L6 30L7 30L7 29ZM32 29L32 30L33 30L33 32L34 32L34 30L33 30L33 29ZM4 30L4 31L3 31L3 32L5 32L5 30ZM21 30L21 31L22 31L22 30ZM6 31L6 32L7 32L7 31ZM29 33L29 35L26 35L26 36L25 36L25 38L24 38L24 40L26 40L26 39L27 39L27 38L28 38L28 37L30 37L30 35L31 35L31 37L32 37L32 39L33 39L33 37L32 37L32 35L31 35L31 34L32 34L32 33L31 33L31 34L30 34L30 33ZM33 33L33 36L36 36L36 33ZM38 33L38 34L37 34L37 35L38 35L38 36L37 36L37 37L36 37L36 38L37 38L37 40L39 40L39 39L38 39L38 38L40 38L40 37L38 37L38 36L39 36L39 33ZM15 34L15 36L16 36L16 37L15 37L15 40L17 40L17 39L16 39L16 37L17 37L17 38L18 38L18 37L17 37L17 36L16 36L16 34ZM17 34L17 35L18 35L18 34ZM34 34L34 35L35 35L35 34ZM13 36L13 37L14 37L14 36ZM27 36L27 37L28 37L28 36ZM34 37L34 38L35 38L35 37ZM9 38L9 39L10 39L10 38ZM11 38L11 39L12 39L12 38ZM30 38L30 39L29 39L29 40L30 40L30 39L31 39L31 38ZM0 0L0 7L7 7L7 0ZM1 1L1 6L6 6L6 1ZM2 2L2 5L5 5L5 2ZM34 0L34 7L41 7L41 0ZM35 1L35 6L40 6L40 1ZM36 2L36 5L39 5L39 2ZM0 34L0 41L7 41L7 34ZM1 35L1 40L6 40L6 35ZM2 36L2 39L5 39L5 36Z" fill="#000000"/></g></g></svg>
